<?xml version="1.0" encoding="utf-8"?>
<!-- Generator: Adobe Illustrator 26.0.0, SVG Export Plug-In . SVG Version: 6.00 Build 0)  -->
<svg version="1.1" id="Layer_1" xmlns="http://www.w3.org/2000/svg" xmlns:xlink="http://www.w3.org/1999/xlink" x="0px" y="0px"
	 viewBox="0 0 758 818" style="enable-background:new 0 0 758 818;" xml:space="preserve">
<style type="text/css">
	.st0{fill:#B8B9B9;}
</style>
<g>
	<path class="st0" d="M240.33,393.36c-5.51,25.21-28.01,44.15-54.85,44.15c-7.16,0-12.96,5.8-12.96,12.96s5.8,12.96,12.96,12.96
		c41.08,0,75.2-30.34,81.15-69.78c25.15-2.72,48.37-13.93,66.34-32.27c5.01-5.11,4.92-13.32-0.19-18.33
		c-5.11-5.01-13.32-4.93-18.33,0.19c-15.89,16.22-37.15,25.16-59.86,25.16c-46.21,0-83.8-37.59-83.8-83.8
		c0-7.16-5.8-12.96-12.96-12.96s-12.96,5.8-12.96,12.96C144.87,340.26,186.55,386.34,240.33,393.36z"/>
	<path class="st0" d="M295.2,505.76c0-7.16-5.8-12.96-12.96-12.96c-60.5,0-109.72,49.22-109.72,109.72c0,0.63,0.02,1.25,0.03,1.88
		c-4.82-0.65-9.73-1.02-14.72-1.02c-7.16,0-12.96,5.8-12.96,12.96c0,7.16,5.8,12.96,12.96,12.96c46.21,0,83.8,37.59,83.8,83.8
		c0,7.16,5.8,12.96,12.96,12.96c7.16,0,12.96-5.8,12.96-12.96c0-45.98-28.44-85.42-68.65-101.71c-0.31-2.94-0.46-5.91-0.46-8.87
		c0-46.21,37.59-83.8,83.8-83.8C289.4,518.72,295.2,512.92,295.2,505.76z"/>
	<path class="st0" d="M737.53,395.18c0-29.5-11.78-57.46-32.61-78.02c3.3-10.55,4.97-21.47,4.97-32.56
		c0-53.35-38.28-97.9-88.8-107.7c3.86-9.63,5.86-19.94,5.86-30.53c0-33.79-20.53-62.87-49.77-75.44C528.46,32.12,475.18,9,434.29,9
		C411.57,9,391.41,20.18,379,37.31C366.59,20.18,346.43,9,323.71,9c-40.88,0-94.17,23.12-142.88,61.92
		c-29.24,12.57-49.77,41.65-49.77,75.44c0,10.59,2,20.91,5.86,30.53c-50.53,9.8-88.8,54.35-88.8,107.7c0,11.09,1.67,22,4.97,32.56
		c-20.83,20.56-32.61,48.52-32.61,78.02c0,23.06,7.17,44.48,19.37,62.16c-12.68,18.34-19.37,39.73-19.37,62.25
		c0,39.89,21.75,76.44,56.18,95.72c-0.59,4.93-0.89,9.9-0.89,14.87c0,53.81,35.1,101.39,86.03,117.6
		C183.94,785.68,224.3,809,268.42,809c48.37,0,90.31-27.96,110.58-68.55C399.27,781.04,441.21,809,489.58,809
		c44.12,0,84.47-23.32,106.63-61.23c50.93-16.22,86.03-63.79,86.03-117.6c0-4.97-0.3-9.94-0.89-14.87
		c34.43-19.27,56.18-55.82,56.18-95.72c0-22.52-6.69-43.91-19.37-62.25C730.36,439.65,737.53,418.24,737.53,395.18z M268.42,783.08
		c-36.34,0-69.44-20.03-86.41-52.28c-1.68-3.19-4.62-5.54-8.1-6.48c-42.53-11.45-72.23-50.16-72.23-94.16
		c0-6.58,0.66-13.18,1.97-19.6c1.21-5.96-1.88-11.96-7.43-14.43c-30.27-13.46-49.83-43.51-49.83-76.55c0-15.03,3.9-29.4,11.34-42.12
		c19.35,17.06,44.71,27.44,72.46,27.44c7.16,0,12.96-5.8,12.96-12.96s-5.8-12.96-12.96-12.96c-46.21,0-83.8-37.59-83.8-83.8
		c0-24.87,10.98-48.32,30.11-64.31c4.32-3.61,5.81-9.6,3.7-14.81c-4.09-10.08-6.17-20.67-6.17-31.46c0-46.21,37.59-83.8,83.8-83.8
		s83.8,37.59,83.8,83.8c0,7.16,5.8,12.96,12.96,12.96c7.16,0,12.96-5.8,12.96-12.96c0-58.13-45.45-105.82-102.67-109.47
		c-5.19-8.67-7.91-18.53-7.91-28.76c0-23.1,14.02-42.98,34-51.59c0.77-0.23,1.53-0.53,2.26-0.91c6.19-2.35,12.89-3.65,19.89-3.65
		c21.7,0,41.07,12.13,50.55,31.66c3.13,6.44,10.88,9.12,17.32,6c6.44-3.13,9.12-10.88,6-17.32c-10.83-22.29-31.32-38.32-54.91-43.99
		c33.07-20.18,65.64-31.64,91.63-31.64c23.34,0,42.33,18.99,42.33,42.33v167.69c-11.64-9.24-26.35-14.77-42.33-14.77
		c-7.16,0-12.96,5.8-12.96,12.96s5.8,12.96,12.96,12.96c23.34,0,42.33,18.99,42.33,42.33v311.5
		c-16.11-20.79-38.83-36.48-65.55-43.66c-6.91-1.85-14.02,2.24-15.88,9.15c-1.86,6.91,2.24,14.02,9.15,15.88
		c42.55,11.43,72.27,50.16,72.27,94.17C366.04,739.29,322.25,783.08,268.42,783.08z M661.78,596.14c-5.56,2.47-8.65,8.47-7.43,14.43
		c1.31,6.42,1.97,13.02,1.97,19.6c0,43.99-29.7,82.71-72.23,94.16c-3.49,0.94-6.42,3.29-8.1,6.48
		c-16.96,32.24-50.07,52.28-86.41,52.28c-53.83,0-97.62-43.79-97.62-97.62c0-3.64-0.17-7.26-0.49-10.84
		c0.31-1.11,0.49-2.27,0.49-3.48V243.13c0-23.34,18.99-42.33,42.33-42.33c7.16,0,12.96-5.8,12.96-12.96s-5.8-12.96-12.96-12.96
		c-15.98,0-30.69,5.54-42.33,14.77V77.25c0-23.34,18.99-42.33,42.33-42.33c26,0,58.56,11.46,91.63,31.64
		c-23.6,5.67-44.09,21.7-54.91,43.99c-3.13,6.44-0.44,14.19,6,17.32c6.44,3.13,14.19,0.44,17.32-6
		c9.48-19.53,28.85-31.66,50.55-31.66c7,0,13.71,1.3,19.89,3.65c0.73,0.38,1.49,0.68,2.25,0.91c19.98,8.61,34.01,28.49,34.01,51.59
		c0,10.23-2.72,20.09-7.91,28.76c-57.23,3.65-102.67,51.34-102.67,109.47c0,7.16,5.8,12.96,12.96,12.96s12.96-5.8,12.96-12.96
		c0-46.21,37.59-83.8,83.8-83.8c46.21,0,83.8,37.59,83.8,83.8c0,10.79-2.07,21.37-6.16,31.46c-2.12,5.22-0.62,11.2,3.7,14.81
		c19.14,15.99,30.11,39.44,30.11,64.31c0,46.21-37.59,83.8-83.8,83.8c-7.16,0-12.96,5.8-12.96,12.96s5.8,12.96,12.96,12.96
		c27.76,0,53.12-10.38,72.46-27.44c7.44,12.73,11.34,27.09,11.34,42.12C711.61,552.63,692.05,582.68,661.78,596.14z"/>
	<path class="st0" d="M600.17,423.69c-26.84,0-49.34-18.94-54.85-44.15c53.78-7.02,95.46-53.1,95.46-108.76
		c0-7.16-5.8-12.96-12.96-12.96s-12.96,5.8-12.96,12.96c0,46.21-37.59,83.8-83.8,83.8c-22.71,0-43.97-8.93-59.86-25.16
		c-5.01-5.11-13.21-5.2-18.33-0.19c-5.11,5.01-5.2,13.21-0.19,18.33c17.97,18.34,41.19,29.55,66.34,32.27
		c5.95,39.45,40.07,69.78,81.15,69.78c7.16,0,12.96-5.8,12.96-12.96S607.32,423.69,600.17,423.69z"/>
	<path class="st0" d="M558.7,575.74c-4.99,0-9.9,0.37-14.72,1.02c0.01-0.63,0.03-1.25,0.03-1.88c0-60.5-49.22-109.72-109.72-109.72
		c-7.16,0-12.96,5.8-12.96,12.96s5.8,12.96,12.96,12.96c46.21,0,83.8,37.59,83.8,83.8c0,2.96-0.16,5.93-0.46,8.87
		c-40.21,16.29-68.65,55.73-68.65,101.71c0,7.16,5.8,12.96,12.96,12.96s12.96-5.8,12.96-12.96c0-46.21,37.59-83.8,83.8-83.8
		c7.16,0,12.96-5.8,12.96-12.96C571.66,581.54,565.85,575.74,558.7,575.74z"/>
</g>
</svg>
